# xmcd
#
# Track frame offsets: 
#        150
#        13745
#        24604
#        36989
#        49914
#        62451
#        74913
#        86551
#        99646
#        111113
#        121902
#        134926
#        147410
#        160026
#        172635
#        183867
#        196477
#        208841
#        222176
#        232958
#        246154
#        257727
#        269527
#        281021
#
# Disc length: 3929 seconds
#
# Revision: 2
# Processed by: cddbd v1.5.2PL0 Copyright (c) Steve Scherf et al.
# Submitted via: ExactAudioCopyFreeDBPlugin 1.0
#
DISCID=6e0f5718
DTITLE=Charles Brown - Charles Brown:  The Classic Earliest Recordings
DTITLE=, 1944-1950 [JSP Records]
DYEAR=2003
DGENRE=Rhythm and Blues
TTITLE0=I'm So Happy I Could Cry
TTITLE1=If You Don't Why Don't Cha
TTITLE2=Scratch Sheet
TTITLE3=Jilted Blues
TTITLE4=Tomorrow
TTITLE5=So There
TTITLE6=Groovy Movie Blues
TTITLE7=You Better Change Your Way of Lovin'
TTITLE8=Free Lancin' Again
TTITLE9=Any Old Place with Me
TTITLE10=I Hate Myself
TTITLE11=If I Had You
TTITLE12=Friendless Blues
TTITLE13=Walkin' in Circles
TTITLE14=Cold in Here
TTITLE15=Love Me Tonight
TTITLE16=Snuff Drippin' Mama
TTITLE17=B and O Blues
TTITLE18=Teresa
TTITLE19=Where Can I Find My Baby
TTITLE20=Honey Keep Your Mind on Me
TTITLE21=Foolish
TTITLE22=My Last Affair
TTITLE23=Homesick Blues
EXTD=
EXTT0=
EXTT1=
EXTT2=
EXTT3=
EXTT4=
EXTT5=
EXTT6=
EXTT7=
EXTT8=
EXTT9=
EXTT10=
EXTT11=
EXTT12=
EXTT13=
EXTT14=
EXTT15=
EXTT16=
EXTT17=
EXTT18=
EXTT19=
EXTT20=
EXTT21=
EXTT22=
EXTT23=
PLAYORDER=
